<svg xmlns="http://www.w3.org/2000/svg" viewBox="0 0 1600 640" width="1600" height="640" role="img" aria-label="AEON — the most autonomous agent framework">
  <defs>
    <pattern id="halftone" width="7" height="7" patternUnits="userSpaceOnUse">
      <circle cx="1.4" cy="1.4" r="1.1" fill="#F4EFE1"/>
    </pattern>
    <radialGradient id="vig" cx="50%" cy="46%" r="62%">
      <stop offset="0%" stop-color="#17150f"/>
      <stop offset="60%" stop-color="#0d0c0a"/>
      <stop offset="100%" stop-color="#060504"/>
    </radialGradient>
    <radialGradient id="halo" cx="50%" cy="50%" r="50%">
      <stop offset="0%" stop-color="#F4EFE1" stop-opacity="0.16"/>
      <stop offset="100%" stop-color="#F4EFE1" stop-opacity="0"/>
    </radialGradient>
    <filter id="soft" x="-30%" y="-30%" width="160%" height="160%">
      <feGaussianBlur stdDeviation="2.2"/>
    </filter>
    <style>
      @keyframes pulse{0%,100%{transform:scale(1)}50%{transform:scale(1.09)}}
      @keyframes spin{from{transform:rotate(0deg)}to{transform:rotate(360deg)}}
      .star{transform-box:fill-box;transform-origin:center;animation:pulse 3.2s ease-in-out infinite}
      .rays{transform-box:fill-box;transform-origin:center;animation:spin 70s linear infinite}
    </style>
  </defs>

  <!-- background -->
  <rect width="1600" height="640" fill="url(#vig)"/>
  <rect width="1600" height="640" fill="url(#halftone)" opacity="0.10"/>

  <!-- sunburst rays behind wordmark -->
  <g class="rays" transform="translate(800,296)">
    <g stroke="#F4EFE1" stroke-opacity="0.055" stroke-width="3">
      <line x1="0" y1="0" x2="760" y2="0"/>
      <line x1="0" y1="0" x2="658" y2="380"/>
      <line x1="0" y1="0" x2="380" y2="658"/>
      <line x1="0" y1="0" x2="0" y2="760"/>
      <line x1="0" y1="0" x2="-380" y2="658"/>
      <line x1="0" y1="0" x2="-658" y2="380"/>
      <line x1="0" y1="0" x2="-760" y2="0"/>
      <line x1="0" y1="0" x2="-658" y2="-380"/>
      <line x1="0" y1="0" x2="-380" y2="-658"/>
      <line x1="0" y1="0" x2="0" y2="-760"/>
      <line x1="0" y1="0" x2="380" y2="-658"/>
      <line x1="0" y1="0" x2="658" y2="-380"/>
    </g>
  </g>

  <!-- twinkling starfield -->
  <g fill="#F4EFE1">
    <circle cx="150" cy="90" r="1.8"><animate attributeName="opacity" values="0.2;1;0.2" dur="3.1s" repeatCount="indefinite"/></circle>
    <circle cx="300" cy="180" r="1.3"><animate attributeName="opacity" values="0.15;0.8;0.15" dur="4.3s" repeatCount="indefinite"/></circle>
    <circle cx="240" cy="470" r="1.6"><animate attributeName="opacity" values="0.2;0.9;0.2" dur="3.7s" repeatCount="indefinite"/></circle>
    <circle cx="470" cy="120" r="1.4"><animate attributeName="opacity" values="0.15;0.85;0.15" dur="5.0s" repeatCount="indefinite"/></circle>
    <circle cx="120" cy="330" r="1.2"><animate attributeName="opacity" values="0.2;0.7;0.2" dur="4.6s" repeatCount="indefinite"/></circle>
    <circle cx="1120" cy="120" r="1.5"><animate attributeName="opacity" values="0.2;0.95;0.2" dur="3.4s" repeatCount="indefinite"/></circle>
    <circle cx="1300" cy="200" r="1.3"><animate attributeName="opacity" values="0.15;0.8;0.15" dur="4.1s" repeatCount="indefinite"/></circle>
    <circle cx="1380" cy="420" r="1.7"><animate attributeName="opacity" values="0.2;1;0.2" dur="3.9s" repeatCount="indefinite"/></circle>
    <circle cx="1460" cy="110" r="1.2"><animate attributeName="opacity" values="0.15;0.7;0.15" dur="5.2s" repeatCount="indefinite"/></circle>
    <circle cx="1200" cy="470" r="1.4"><animate attributeName="opacity" values="0.2;0.85;0.2" dur="4.4s" repeatCount="indefinite"/></circle>
    <circle cx="620" cy="90" r="1.2"><animate attributeName="opacity" values="0.15;0.75;0.15" dur="4.8s" repeatCount="indefinite"/></circle>
    <circle cx="980" cy="80" r="1.3"><animate attributeName="opacity" values="0.2;0.9;0.2" dur="3.6s" repeatCount="indefinite"/></circle>
  </g>

  <!-- star mark -->
  <circle cx="800" cy="150" r="90" fill="url(#halo)"/>
  <g transform="translate(800,150)">
    <path class="star" d="M0 -56 L13.7 -18.9 L53.2 -17.3 L22.3 7.2 L32.9 45.3 L0 23.4 L-32.9 45.3 L-22.3 7.2 L-53.2 -17.3 L-13.7 -18.9 Z"
      fill="#F4EFE1" stroke="#0d0c0a" stroke-width="1.2"/>
  </g>

  <!-- wordmark -->
  <g transform="translate(800,318)">
    <text x="0" y="0" text-anchor="middle" transform="skewX(-8)"
      font-family="'Arial Black','Helvetica Neue',Helvetica,Arial,sans-serif" font-weight="900" font-style="italic"
      font-size="164" letter-spacing="10" fill="#F4EFE1">AEON</text>
  </g>

  <!-- tagline -->
  <text x="800" y="398" text-anchor="middle"
    font-family="'Arial Black','Helvetica Neue',Helvetica,Arial,sans-serif" font-weight="800" font-style="italic"
    font-size="30" letter-spacing="1.5" fill="#F4EFE1" fill-opacity="0.92">The most autonomous agent framework.</text>

  <!-- stat bubbles -->
  <g font-family="'Arial Black','Helvetica Neue',Helvetica,Arial,sans-serif" font-weight="800" font-style="italic" font-size="20" fill="#0d0c0a">
    <g transform="translate(560,452)">
      <rect x="0" y="0" width="150" height="42" rx="21" fill="#F4EFE1" stroke="#0d0c0a" stroke-width="2"/>
      <text x="75" y="28" text-anchor="middle">67 skills</text>
    </g>
    <g transform="translate(725,452)">
      <rect x="0" y="0" width="176" height="42" rx="21" fill="#F4EFE1" stroke="#0d0c0a" stroke-width="2"/>
      <text x="88" y="28" text-anchor="middle">6 harnesses</text>
    </g>
    <g transform="translate(916,452)">
      <rect x="0" y="0" width="184" height="42" rx="21" fill="#F4EFE1" stroke="#0d0c0a" stroke-width="2"/>
      <text x="92" y="28" text-anchor="middle">no babysitting</text>
    </g>
  </g>

  <!-- heartbeat pulse line -->
  <path id="beat" d="M70 588 H438 l14 -22 l16 40 l20 -104 l18 132 l16 -46 H1530"
    fill="none" stroke="#F4EFE1" stroke-opacity="0.55" stroke-width="2.4" stroke-linejoin="round" stroke-linecap="round"/>
  <circle r="5.5" fill="#F4EFE1" filter="url(#soft)">
    <animateMotion dur="3.4s" repeatCount="indefinite" rotate="auto">
      <mpath href="#beat"/>
    </animateMotion>
  </circle>
</svg>
